<svg xmlns="http://www.w3.org/2000/svg" viewBox="0 0 512 512">
  <defs>
    <linearGradient id="grad1" x1="0%" y1="0%" x2="100%" y2="100%">
      <stop offset="0%" style="stop-color:#1a1512;stop-opacity:1" />
      <stop offset="100%" style="stop-color:#2d2420;stop-opacity:1" />
    </linearGradient>
  </defs>
  
  <!-- Background Container -->
  <rect width="512" height="512" rx="120" fill="url(#grad1)"/>
  
  <!-- Decorative Border -->
  <rect x="40" y="40" width="432" height="432" rx="80" fill="none" stroke="#8a1c1c" stroke-width="8" opacity="0.5"/>
  
  <!-- The 'Ain' (ع) stylized character representing 'Arabin'/'Ilm -->
  <path d="M256 360c-40 0-70-20-80-50h-40c15 60 70 90 120 90 80 0 140-50 140-130 0-70-50-120-120-120-20 0-40 5-60 15 10-30 30-50 60-50 30 0 50 20 50 20l20-30s-30-30-70-30c-60 0-100 40-100 100 0 20 5 40 15 60-25 20-35 50-35 80 0 60 40 100 100 100z" fill="#fdfbf7"/>
  
  <!-- Accent Dot -->
  <circle cx="360" cy="140" r="25" fill="#8a1c1c"/>
</svg>